/* XPM */
static char *result[] = {
/* columns rows colors chars-per-pixel */
"32 32 212 2 ",
"   c #000000",
".  c #0C0A0D",
"X  c #0A1604",
"o  c #1C1B1C",
"O  c #3C1B14",
"+  c #11200A",
"@  c #231E24",
"#  c #282B27",
"$  c #30332F",
"%  c #643C08",
"&  c #771930",
"*  c #4F2021",
"=  c #75312E",
"-  c #224718",
";  c #31531D",
":  c #37671A",
">  c #324E25",
",  c #3B4934",
"<  c #335428",
"1  c #3A6427",
"2  c #3F6C31",
"3  c #584210",
"4  c #74470D",
"5  c #7C5619",
"6  c #714813",
"7  c #495637",
"8  c #68592D",
"9  c #446B2C",
"0  c #44752C",
"q  c #4A752E",
"w  c #486C37",
"e  c #576B3A",
"r  c #4C7B33",
"t  c #4A7635",
"y  c #527D3B",
"u  c #566422",
"i  c #726B24",
"p  c #351E57",
"a  c #3D017E",
"s  c #3E0B76",
"d  c #3C1967",
"f  c #403E42",
"g  c #733C56",
"h  c #41077D",
"j  c #421376",
"k  c #462C69",
"l  c #493566",
"z  c #4A336B",
"x  c #4A3C64",
"c  c #452573",
"v  c #2E5D75",
"b  c #494754",
"n  c #56585A",
"m  c #4D4C50",
"M  c #71594B",
"N  c #7B5E57",
"B  c #4D664A",
"V  c #576A48",
"C  c #577845",
"Z  c #596D54",
"A  c #4C7C54",
"S  c #4F7C4E",
"D  c #6D7253",
"F  c #554E7C",
"G  c #59487D",
"H  c #5C547A",
"J  c #59587D",
"K  c #565E6F",
"L  c #665C6A",
"P  c #645B78",
"I  c #5B646C",
"U  c #4B7C61",
"Y  c #6A6568",
"T  c #796F6E",
"R  c #6C6378",
"E  c #746A70",
"W  c #777774",
"Q  c #8D142F",
"!  c #962631",
"~  c #A02439",
"^  c #884B16",
"/  c #8A501A",
"(  c #8D4922",
")  c #895727",
"_  c #906B37",
"`  c #9E1F40",
"'  c #AA0250",
"]  c #DA0052",
"[  c #E40062",
"{  c #95704E",
"}  c #93446F",
"|  c #877A69",
" . c #937768",
".. c #5D8D2D",
"X. c #4F8133",
"o. c #54833A",
"O. c #598B39",
"+. c #5C953B",
"@. c #5E9B3A",
"#. c #629538",
"$. c #62992D",
"%. c #5B8B42",
"&. c #5B8645",
"*. c #5E9342",
"=. c #668A45",
"-. c #629543",
";. c #678557",
":. c #6F995E",
">. c #6FA346",
",. c #738C69",
"<. c #FFFA3B",
"1. c #8D8552",
"2. c #AA9D5E",
"3. c #B7AA5A",
"4. c #BDB057",
"5. c #958265",
"6. c #978A74",
"7. c #989379",
"8. c #8C8F6C",
"9. c #83A576",
"0. c #84A864",
"q. c #B2A667",
"w. c #C8BB54",
"e. c #D3C550",
"r. c #E8DA4A",
"t. c #FAEA45",
"y. c #FFF140",
"u. c #3E0082",
"i. c #31119D",
"p. c #2D268A",
"a. c #352E86",
"s. c #342C89",
"d. c #372787",
"f. c #373086",
"g. c #3A3385",
"h. c #3B348A",
"j. c #3F3883",
"k. c #393191",
"l. c #2B17A9",
"z. c #2E0FA3",
"x. c #400180",
"c. c #453D83",
"v. c #443D8C",
"b. c #4B318D",
"n. c #24609E",
"m. c #164DB9",
"M. c #4B458B",
"N. c #484289",
"B. c #514B88",
"V. c #545089",
"C. c #666689",
"Z. c #103FC6",
"A. c #043EE9",
"S. c #0E48D6",
"D. c #0543EA",
"F. c #0442F4",
"G. c #0344FD",
"H. c #0348FF",
"J. c #134EF6",
"K. c #3566ED",
"L. c #547BE6",
"P. c #507BF0",
"I. c #887B99",
"U. c #7696E9",
"Y. c #87858A",
"T. c #8D9989",
"R. c #96938F",
"E. c #B48A88",
"W. c #9DAE93",
"Q. c #9BB495",
"!. c #93AD85",
"~. c #A2B49A",
"^. c #AAA791",
"/. c #9CABAB",
"(. c #AABBA3",
"). c #B8BAB6",
"_. c #B0B0B2",
"`. c #B4C6AA",
"'. c #BCC6BA",
"]. c #CBC8B8",
"[. c #C6D1BC",
"{. c #869DDE",
"}. c #9AAAD2",
"|. c #A7B5DA",
" X c #AFB6C9",
".X c #91ACF9",
"XX c #A7B8E2",
"oX c #B1BFE2",
"OX c #B9C0D4",
"+X c #B8C7F0",
"@X c #C7CAC9",
"#X c #CCD3CC",
"$X c #C9D4C6",
"%X c #CACFD8",
"&X c #D5DAD3",
"*X c #D9DBDB",
"=X c #D2DBCD",
"-X c #DCE4D9",
";X c #E1E3DF",
":X c #CCD2E1",
">X c #EED3EB",
",X c #DFEBE6",
"<X c #E3E4E3",
"1X c #E7E9E5",
"2X c #EBECEC",
"3X c #EBE7E9",
"4X c #F1F1EE",
"5X c #F2F2F3",
"6X c #FCFCFC",
"7X c #F7F6F7",
"8X c #F3F0F5",
"9X c None",
/* pixels */
"9X9X9X9X9X9X9X9X9X9X9X9Xp.h.g.N.9X9X9X9X9X9X9X9X9X9X9X9X9X9X9X9X",
"9X9X9X9X9X9X9X9X9X9X9X9XJ c.f.v.9X9X9X9X9X9X9X9X9X9X9X9X9X9X9X9X",
"9X9X9X9X9X9X9X9X9X9X9XE t.3.c.a.M.9X9X9X9X9X9X9X9X9X9X9X9X9X9X9X",
"9X9X9X9X9X9X9X9X9X9X9XP 3.| c.s.h.M.9X9X9X9X9X9X9X9X9X9X9X9X9X9X",
"9X9X9X9X9X9X9X9X9X9Xj.h.f.p.c.5.F p.M.9X9X9X9X9X9X9X9X9X9X9X9X9X",
"9X9X9X9X9X9X9X9X9Xj.h.g.f.J 2.y.3.E j.M.9X9X9X9X9X9X9X9X9X9X9X9X",
"9X9X9X9X9X9X9X9X9XN.g.g.a.E e.<.r.| f.h.M.9X9X9X9X9X9X9X9X9X9X9X",
"9X9X9X9X9X9X9X9XV.v.g.g.g.p.T w.3.P s.g.h.M.9X9X9X9X9X9X9X9X9X9X",
"9X9X9X9X9X9X9X9Xv.g.a.s.a.a.J H F F f.a.R 6.R 9X9X9X9X9X9X9X9X9X",
"9X9X9X9X9X9X9X9XN.j.H | G g.a.a.g.g.a.F r.<.q.V.9X9X9X9X9X9X9X9X",
"9X9X9X9X9X9X9XF v.T r.y.T f.g.g.g.g.f.N.2.3.2.M.9X9X9X9X9X9X9X9X",
"9X9X9X9X9X9X9XB.s.T r.4.H f.g.g.g.j.g.a.g.g.c.v.Y.9X9X9X9X9X9X9X",
"9X9X9X9X9X9X9XN.s.J P j.g.a.f.g.a.s.N.c.J W I Z %.7 9X9X9X9X9X9X",
"9X9X9X9X9X9Xc.k.g.p.p.s.c.M.v.N.W I Z &.&.o.q 9 2 %.o.1 ; 9X9X9X",
"9X9X9X9X9X9X7.C.a.C.W K D =.C w q 9 1 t y 2 t 0 t > , ;.D - 9X9X",
"9X9X9X9X9X9 >.-.C +.#.o.r 2 t r y &.y - 1 0 o.R.b f . Y 6X(.9X9X",
"9X9X9X9X9X+.B B +.o.&.t w y C , + # $X=XC D <XR.o b ).o @X6X9X9X",
"9X9X9X9Xw #.k c @.y w 0 : W.b n $ L $ 6X3X5X6Xn o Y @   R.T.9X9X",
"9X9X9XO.X.C a x.B 0 r ;.).7X. # m Y   _._.$X#XT.X , X > 0 9X9X9X",
"9X9Xb z d j h u.s k p I.-X6X$ # Y   $ e 1 r r X.&.:.9.-.9X9X9X9X",
"9X9Xo.z u.u.a x.u.u.b.,.o.e e ; 2 :.`.`.(.~.`.(.$X4X1XW.9X9X9X9X",
"9X9X#.+.x u.a a a G ).@X .^ 5 i u =.'.#X@X*X7X4X<X5X4X).M 9X9X9X",
"9Xq -.+.n u.a x.a R [.@X^.) & ~ ( 6 _ { 1.^.[.].7.5.6.| 9X9X9X9X",
"9Xr *.+.z u.j h u.x Q.*X=X;.( ~ ' ` Q Q ! ! = N E.M 4 9X9X9X9X9X",
"9X*.+.&.l B x z n k Q.4X=X~.8.5 % N R.} ' [ ] N >X>X| % 9X9X9X9X",
"9X..*.%.%.@.l c @.o.9.$X$X#X'.T.{ / ) | m O *  .E.{ ( 3 9X9X9X9X",
"9Xv ..#.O.+.l c +.%.%.!.;X3X&X7X2XT.8 6 / 5 / 5 % 6 D /.9X9X9X9X",
"9XG.m.U O.$.l k #.+.O.0.1X4X*X2X4X&X(.,.8.e C V | /.*X<X].9X9X9X",
"Z.H.G.A.S.n.c c A S A U ).,X*X;X*X'.*X2X=X'.$X@X2X2X3X3X{.9X9X9X",
"A.H.G.G.G.G.z.l.D.D.D.A.K.}.:X5X2X&X2X6X1X1X5X4X7X7X1X%XP.A.9X9X",
"A.G.G.G.H.H.z.l.H.G.G.G.H.L.+X6X8XOX*X4X;X1X7X7X7X5X3X|.J.H.D.9X",
"F.G.G.G.G.G.l.l.G.G.G.G.G.F.K..XU.U.}.OX|.U.+X+XoXXX|.U.G.G.G.9X"
};
